<?xml version="1.0" standalone="no"?>
<!DOCTYPE svg PUBLIC "-//W3C//DTD SVG 20010904//EN"
 "http://www.w3.org/TR/2001/REC-SVG-20010904/DTD/svg10.dtd">
<svg version="1.0" xmlns="http://www.w3.org/2000/svg"
 width="575.000000pt" height="575.000000pt" viewBox="0 0 575.000000 575.000000"
 preserveAspectRatio="xMidYMid meet">
<metadata>
Created by potrace 1.11, written by Peter Selinger 2001-2013
</metadata>
<g transform="translate(0.000000,575.000000) scale(0.100000,-0.100000)"
fill="#000000" stroke="none">
<path d="M4046 5356 c9 -23 33 -28 27 -5 -3 10 -11 19 -19 19 -7 0 -11 -6 -8
-14z"/>
<path d="M4340 5360 c0 -5 5 -10 10 -10 6 0 10 5 10 10 0 6 -4 10 -10 10 -5 0
-10 -4 -10 -10z"/>
<path d="M3590 5354 c0 -17 18 -36 30 -32 7 2 4 10 -9 22 -12 11 -21 15 -21
10z"/>
<path d="M3905 5330 c-3 -5 -1 -10 4 -10 6 0 11 5 11 10 0 6 -2 10 -4 10 -3 0
-8 -4 -11 -10z"/>
<path d="M3875 5320 c-3 -5 -1 -10 4 -10 6 0 11 5 11 10 0 6 -2 10 -4 10 -3 0
-8 -4 -11 -10z"/>
<path d="M3894 5280 c-29 -27 -54 -56 -57 -65 -4 -8 -11 -15 -17 -15 -6 0 -9
-4 -6 -9 9 -14 -25 -23 -39 -11 -12 10 -26 -6 -29 -32 -1 -3 -4 -9 -8 -13 -4
-4 -4 -13 -1 -21 4 -10 0 -12 -13 -7 -12 4 -15 3 -10 -5 4 -7 3 -12 -1 -12 -5
0 -9 -9 -9 -21 0 -17 5 -20 29 -15 17 4 26 2 22 -4 -3 -6 -13 -10 -21 -10 -8
0 -14 -5 -14 -11 0 -6 6 -9 13 -6 10 4 14 -6 15 -34 1 -25 -2 -38 -8 -34 -6 3
-10 1 -10 -4 0 -6 5 -11 10 -11 11 0 14 -53 3 -63 -13 -13 -14 -85 -2 -93 7
-4 9 -3 5 4 -3 6 2 13 13 17 11 3 22 12 25 20 3 8 13 15 21 15 9 0 14 3 12 8
-11 18 15 53 53 71 22 10 40 15 40 10 0 -5 0 -11 0 -14 0 -3 -2 -4 -4 -2 -7 4
-46 -36 -46 -47 0 -6 7 0 16 12 19 27 33 21 27 -12 -3 -16 -20 -32 -49 -48
-24 -12 -44 -27 -44 -31 0 -5 -4 -6 -9 -3 -5 3 -11 -1 -15 -9 -3 -8 -12 -15
-21 -15 -8 0 -15 -4 -15 -10 0 -5 -23 -33 -50 -62 -28 -29 -60 -70 -72 -90
-12 -21 -25 -38 -29 -38 -4 0 -19 38 -33 83 -14 46 -35 95 -46 110 -11 14 -20
30 -20 37 0 6 -4 9 -9 6 -12 -8 -43 29 -34 39 5 4 3 5 -3 2 -7 -4 -17 0 -24 8
-9 10 -31 15 -72 15 l-60 0 6 58 c12 130 19 154 67 230 12 18 19 36 16 39 -16
16 -219 -98 -364 -203 -39 -29 -74 -50 -77 -47 -3 4 -6 -1 -6 -10 0 -26 -23
-25 -46 2 -20 23 -29 26 -93 26 -39 0 -71 -3 -71 -6 0 -3 -12 -11 -26 -18 -23
-10 -26 -9 -21 4 4 8 3 14 -1 12 -4 -1 -21 8 -37 21 -81 63 -107 74 -154 68
-25 -3 -54 -14 -65 -25 -40 -35 -59 -41 -79 -23 -15 13 -23 14 -51 4 -37 -14
-59 -15 -52 -4 2 4 -7 9 -21 10 -39 3 -114 44 -132 72 -8 14 -21 29 -28 33 -7
4 -13 23 -13 41 0 25 -5 35 -20 39 -11 3 -20 14 -20 25 0 26 -31 52 -62 52
-50 0 -147 -87 -238 -214 -18 -25 -37 -43 -43 -39 -6 3 -7 2 -4 -4 8 -13 -61
-78 -94 -88 -13 -4 -29 -12 -36 -17 -7 -5 -17 -7 -23 -3 -5 3 -10 1 -10 -5 0
-6 -16 -28 -35 -48 -20 -20 -38 -47 -41 -59 -3 -13 -10 -20 -15 -17 -5 3 -6
-1 -3 -9 3 -8 -1 -21 -8 -28 -20 -21 -22 -137 -4 -181 14 -32 28 -43 109 -82
52 -26 98 -46 104 -46 18 0 71 -46 116 -101 l45 -55 -100 4 c-180 8 -223 -19
-312 -195 -39 -78 -96 -153 -96 -127 0 5 -4 2 -10 -6 -7 -12 -10 -11 -15 5 -4
11 -13 34 -20 52 -11 24 -11 33 -2 37 7 2 4 5 -6 5 -10 1 -16 5 -12 10 3 5 1
12 -5 16 -5 3 -10 19 -10 34 0 49 -47 75 -88 50 -15 -9 -18 -21 -14 -56 4 -50
-8 -51 -28 -3 -9 21 -10 38 -3 53 5 12 6 33 2 47 -4 14 -7 44 -8 68 -1 39 0
41 18 31 29 -19 51 -4 51 35 0 33 -20 53 -41 40 -10 -6 -4 31 13 76 6 14 12
70 15 125 5 85 3 102 -11 114 -45 38 -102 -25 -142 -159 -14 -47 -32 -92 -40
-100 -12 -12 -14 -10 -14 20 1 19 12 76 25 125 14 50 28 101 31 115 10 45 93
270 118 317 9 18 23 76 32 130 15 97 15 98 -6 115 -25 20 -46 23 -55 8 -4 -6
-12 -7 -18 -4 -7 4 -9 4 -5 0 4 -5 -2 -25 -13 -44 -10 -20 -19 -40 -19 -44 0
-5 -9 -30 -21 -56 -12 -26 -25 -56 -29 -67 -5 -11 -22 -51 -39 -90 -44 -105
-128 -373 -137 -440 -3 -16 -8 -109 -12 -205 -7 -185 4 -314 34 -371 8 -16 12
-29 9 -29 -3 0 23 -30 58 -66 34 -37 61 -71 59 -76 -1 -5 1 -7 6 -4 13 8 98
-121 129 -195 21 -51 27 -83 30 -158 1 -52 -1 -97 -5 -100 -4 -4 -18 -27 -31
-53 -14 -26 -29 -44 -34 -41 -6 3 -7 1 -3 -6 4 -6 -1 -23 -12 -39 -11 -15 -23
-37 -26 -49 -4 -13 -12 -23 -18 -23 -6 0 -9 -3 -6 -6 4 -3 -4 -36 -16 -72 -31
-92 -40 -153 -25 -185 19 -41 46 -44 83 -8 18 17 36 28 41 24 4 -5 5 -2 1 5
-4 6 -2 12 3 12 6 0 10 3 9 8 -1 4 15 39 35 77 25 45 36 59 32 40 -4 -16 -8
-95 -11 -175 -2 -80 -6 -158 -9 -174 -13 -73 -17 -294 -5 -351 16 -81 14 -74
35 -129 23 -59 113 -151 189 -195 30 -16 63 -43 74 -59 11 -15 36 -37 56 -47
19 -10 32 -23 29 -28 -9 -14 20 -28 30 -14 7 9 10 9 13 0 3 -7 11 -10 17 -7 7
2 13 -4 14 -16 1 -12 -5 -24 -13 -27 -16 -6 -19 -33 -3 -33 5 0 7 5 3 11 -4 7
-1 10 7 7 8 -3 13 -15 13 -26 -2 -28 12 -29 19 -2 7 27 27 25 28 -2 1 -13 0
-27 -1 -33 -4 -16 -2 -47 5 -53 3 -3 15 4 27 16 13 12 17 22 10 22 -6 0 -12
-6 -12 -12 0 -7 -5 -5 -11 5 -14 23 -10 27 18 17 18 -8 21 -15 18 -59 -3 -32
0 -51 7 -51 6 0 8 9 5 20 -3 11 -1 23 5 26 6 4 5 10 -3 15 -9 6 -10 9 -2 9 6
0 10 7 9 15 -3 18 -41 47 -50 38 -3 -3 -6 0 -6 9 0 25 11 28 33 7 12 -11 23
-15 25 -10 2 5 12 1 23 -10 20 -20 20 -49 0 -49 -13 0 -22 -43 -10 -51 6 -3
12 -15 14 -25 2 -10 4 -19 5 -19 1 0 3 -8 5 -17 2 -14 -1 -15 -20 -8 -13 5
-26 6 -29 3 -3 -4 -6 -1 -6 5 0 7 -7 12 -16 12 -8 0 -12 4 -9 10 6 10 -7 14
-34 10 -9 -1 -12 4 -7 15 3 9 6 19 6 21 0 3 4 3 9 -1 5 -3 13 0 17 6 4 8 3 9
-4 5 -7 -4 -12 -3 -12 3 0 5 -9 9 -19 8 -14 -1 -18 -7 -15 -23 4 -24 -9 -39
-26 -29 -8 5 -7 12 2 23 10 12 10 14 0 8 -8 -5 -16 2 -22 19 -6 15 -15 23 -21
20 -7 -5 -5 -13 5 -24 9 -10 16 -22 16 -28 0 -18 -39 -22 -56 -6 -8 8 -18 12
-22 8 -4 -3 1 -11 11 -16 9 -6 15 -15 11 -20 -4 -6 2 -9 14 -7 12 2 28 -6 37
-17 14 -17 16 -17 11 -2 -3 9 -2 17 2 17 4 0 24 4 45 9 30 7 36 6 28 -3 -6 -7
-7 -17 -3 -21 4 -5 2 -5 -5 -1 -6 3 -15 2 -18 -4 -5 -8 -11 -7 -21 1 -12 10
-13 9 -8 -5 4 -10 13 -15 21 -11 12 4 14 0 9 -18 -4 -18 0 -27 17 -35 12 -6
16 -11 10 -11 -7 -1 -13 -5 -13 -11 0 -5 3 -9 8 -8 4 1 17 -3 29 -10 16 -9 22
-9 25 -1 3 8 10 5 21 -6 16 -16 16 -18 2 -29 -17 -12 -11 -51 6 -40 5 3 9 -2
9 -11 0 -12 -4 -13 -17 -7 -10 5 -24 7 -31 5 -7 -3 -20 1 -28 8 -12 10 -15 10
-12 -1 2 -7 -3 -15 -9 -17 -8 -3 -13 3 -13 14 -1 15 -3 14 -14 -6 -10 -17 -15
-20 -18 -10 -3 8 -9 11 -13 7 -15 -14 16 -38 41 -32 15 4 24 2 24 -5 0 -6 7
-11 15 -11 18 0 18 -5 5 -31 -9 -15 -7 -19 7 -20 16 0 15 -1 -2 -8 -25 -10
-46 5 -38 26 4 11 2 14 -5 9 -16 -10 -15 -32 3 -49 8 -8 11 -17 8 -21 -9 -8
-23 -8 -22 2 3 18 -2 22 -15 10 -10 -9 -11 -15 -3 -20 7 -4 -11 -29 -48 -67
-32 -33 -63 -57 -68 -54 -6 4 -7 1 -2 -7 5 -8 2 -18 -9 -26 -10 -7 -17 -15
-16 -18 0 -6 -10 -28 -67 -135 -45 -86 -46 -188 -2 -212 11 -5 17 -13 15 -18
-3 -4 5 -8 17 -9 34 -2 101 -9 109 -11 14 -2 78 -63 78 -75 1 -22 86 -103 124
-117 21 -8 49 -24 62 -36 14 -12 27 -23 29 -23 3 0 10 0 17 0 6 0 8 -3 5 -6
-8 -8 73 -47 152 -75 65 -23 128 -24 238 -4 62 10 98 12 144 4 34 -5 87 -9
118 -8 31 1 121 -2 201 -6 167 -8 411 6 485 29 28 8 90 38 138 66 48 28 93 51
100 53 7 1 14 5 17 8 3 3 25 19 50 34 25 16 77 51 115 80 39 28 93 64 120 80
60 34 258 158 299 188 16 11 35 20 42 20 7 0 11 4 8 9 -3 4 0 9 5 9 6 1 16 2
21 3 6 0 10 4 11 8 0 10 156 160 164 158 4 -1 12 6 19 16 8 11 18 14 26 9 8
-5 11 -4 7 2 -3 5 35 43 85 84 49 41 96 82 103 92 7 10 37 44 67 75 30 31 72
87 93 124 22 38 43 68 48 68 4 0 6 4 3 8 -3 5 13 44 34 88 22 43 39 83 40 88
0 10 92 156 97 156 2 0 1 -5 -3 -12 -5 -7 -3 -8 5 -4 7 5 10 10 7 13 -3 3 3
18 13 32 51 73 65 177 43 311 -8 43 -10 100 -6 133 5 45 2 63 -10 83 -9 13
-14 30 -10 36 4 7 3 8 -4 4 -8 -4 -12 0 -12 11 0 30 -25 91 -46 114 -38 42
-72 52 -191 53 -62 0 -113 -2 -113 -6 0 -5 -6 -8 -13 -8 -18 0 -51 -38 -66
-76 -7 -18 -23 -41 -37 -53 -13 -11 -24 -28 -24 -36 0 -8 -5 -15 -11 -15 -7 0
-9 10 -6 25 2 14 2 23 -1 20 -3 -3 -16 25 -28 62 -19 55 -20 68 -9 79 7 8 19
31 25 51 24 78 32 93 52 93 12 0 59 40 118 101 54 55 97 102 97 102 -6 7 57
76 64 71 5 -3 9 -2 8 3 -3 19 2 34 9 29 5 -3 9 0 9 7 0 7 33 57 73 112 93 128
172 291 174 360 1 50 1 50 -32 53 -18 2 -41 -3 -50 -10 -13 -11 -15 -11 -10 3
34 90 113 354 133 447 31 137 33 266 3 295 -34 35 -112 49 -136 25 -7 -7 -12
-9 -12 -6 0 4 -21 -15 -47 -40 -26 -26 -50 -46 -55 -45 -4 2 -7 -2 -5 -9 3
-17 -36 -16 -51 2 -11 13 -11 11 -2 -8 7 -14 17 -21 26 -18 23 9 16 -11 -12
-33 -15 -12 -23 -21 -18 -21 5 0 3 -4 -4 -9 -8 -4 -24 -30 -37 -57 -13 -27
-24 -41 -24 -31 -1 10 -5 16 -10 12 -5 -3 -12 -1 -16 5 -3 5 -1 10 6 10 19 0
-2 17 -26 22 -11 2 -20 10 -20 18 0 8 -12 17 -27 20 -24 5 -25 7 -12 24 8 11
14 15 14 9 0 -6 8 -14 18 -18 14 -5 15 -4 5 6 -17 17 -16 29 1 29 7 0 16 9 19
21 4 14 2 19 -8 15 -8 -3 -14 5 -17 24 -2 16 -1 27 3 24 4 -2 10 2 12 8 4 10
6 10 6 0 1 -10 4 -10 16 2 16 16 21 41 6 32 -16 -10 -20 21 -6 41 8 10 14 23
14 28 0 6 -4 2 -10 -7 -14 -25 -30 -22 -25 5 2 14 9 21 20 19 17 -3 22 13 6
23 -18 11 1 32 24 28 13 -3 27 0 30 6 9 14 26 14 26 0 0 -5 -4 -7 -10 -4 -5 3
-10 2 -10 -2 0 -5 19 -15 43 -23 34 -13 41 -19 39 -38 -3 -17 2 -22 20 -23 37
-2 51 2 63 17 5 8 24 15 40 17 17 2 32 7 34 13 5 13 44 39 53 36 5 -1 7 1 6 6
-1 4 3 16 8 27 44 82 12 132 -69 111 -26 -6 -28 -5 -22 16 4 13 8 27 9 33 1
13 17 29 41 43 12 7 14 12 6 12 -11 0 -11 3 -1 15 9 10 9 15 1 15 -6 0 -11 14
-11 30 0 17 -5 30 -11 30 -15 0 -69 -33 -69 -42 0 -4 -7 -8 -15 -8 -9 0 -12 6
-8 17 4 10 2 14 -5 10 -6 -4 -13 1 -16 10 -3 10 -3 -1 -1 -25 3 -26 1 -41 -5
-37 -5 3 -7 0 -4 -8 3 -8 -2 -17 -10 -20 -12 -5 -15 0 -12 22 2 15 6 34 11 40
4 8 0 14 -13 18 -11 2 -24 19 -30 36 -8 26 -10 28 -11 10 -1 -16 -6 -21 -16
-17 -8 4 -15 13 -15 21 0 8 5 11 10 8 6 -3 10 -1 10 4 0 6 -4 11 -9 11 -4 0
-11 26 -15 57 -8 70 -64 184 -125 256 -74 88 -120 106 -170 68 -14 -10 -31
-17 -38 -14 -8 3 -11 0 -8 -9 7 -18 -42 -81 -56 -72 -5 3 -9 -1 -9 -9 0 -7
-11 -24 -25 -37 -22 -20 -27 -22 -38 -10 -6 8 -8 12 -3 8 12 -10 56 41 49 59
-5 12 -7 12 -14 1 -5 -7 -9 -10 -9 -6 0 13 -80 -21 -107 -47 -34 -31 -53 -33
-27 -3 11 14 13 18 3 11 -13 -10 -20 -9 -37 8 -12 11 -22 15 -22 10 0 -6 -11
-6 -30 -1 -21 6 -30 5 -30 -3 0 -7 -4 -6 -10 3 -8 13 -10 13 -10 -2 0 -22 -19
-33 -32 -20 -8 8 -4 18 13 36 28 30 36 31 60 10 16 -14 18 -14 24 8 4 13 14
31 23 41 8 9 13 19 11 22 -7 6 -23 -7 -35 -29 -14 -26 -34 -32 -34 -11 0 9 5
13 10 10 6 -3 10 1 10 10 0 8 7 18 15 21 8 4 12 10 9 15 -3 5 -1 9 4 9 6 0 13
8 17 18 5 14 4 15 -6 5 -15 -15 -29 -17 -29 -3 0 5 11 12 24 16 13 3 27 15 30
27 5 20 4 21 -8 5 -7 -10 -23 -18 -36 -18 -21 0 -60 -33 -60 -52 0 -4 -3 -7
-7 -7 -5 1 -17 1 -28 -1 l-20 -1 20 -9 c11 -5 14 -9 6 -9 -9 -1 -12 -9 -9 -26
3 -13 2 -23 -1 -20 -4 2 -16 -10 -26 -26 -23 -33 -34 -37 -34 -11 -1 43 -5 52
-14 43 -7 -7 -6 -15 1 -24 9 -10 9 -14 -1 -14 -17 0 -19 36 -4 56 13 18 25 20
45 8 6 -5 12 -4 12 1 0 6 -8 13 -17 16 -15 6 -15 8 -3 16 8 6 12 10 8 10 -4 0
6 13 23 30 18 16 35 28 38 25 4 -2 7 5 8 15 3 34 -11 30 -63 -20z m-94 -125
c0 -1 -9 -12 -19 -24 -13 -15 -21 -18 -26 -10 -4 6 -2 15 5 19 7 4 10 12 6 18
-4 6 2 8 14 5 11 -3 20 -6 20 -8z m50 -73 c-6 -2 -8 -7 -6 -11 3 -4 0 -13 -6
-21 -8 -12 -9 -12 -4 3 3 9 1 17 -4 17 -6 0 -5 9 2 20 9 14 14 16 20 7 4 -7 3
-14 -2 -15z m-2183 -3601 c-5 -21 29 -37 37 -17 3 6 5 5 6 -4 1 -8 3 -24 4
-36 2 -13 -4 -20 -16 -21 -13 -1 -18 5 -18 23 0 14 -4 22 -10 19 -5 -3 -11 -3
-11 2 -6 36 -5 53 4 53 5 0 7 -9 4 -19z m19 -184 c3 -3 3 -11 -1 -17 -5 -9
-10 -9 -18 -1 -14 14 -40 14 -32 1 4 -6 11 -8 16 -5 13 9 11 -9 -3 -23 -16
-16 -29 -15 -22 2 3 8 1 17 -5 21 -6 3 -11 11 -11 16 0 6 5 7 10 4 6 -3 10 -2
10 4 0 9 46 8 56 -2z"/>
<path d="M3600 5287 c0 -8 10 -22 21 -33 l22 -19 -17 33 c-18 34 -26 40 -26
19z"/>
<path d="M4231 5284 c0 -11 3 -14 6 -6 3 7 2 16 -1 19 -3 4 -6 -2 -5 -13z"/>
<path d="M4180 5283 c0 -5 5 -15 10 -23 8 -12 10 -11 10 8 0 12 -4 22 -10 22
-5 0 -10 -3 -10 -7z"/>
<path d="M3697 5263 c-11 -10 -8 -20 8 -27 10 -4 15 1 15 14 0 20 -11 26 -23
13z"/>
<path d="M3768 5263 c6 -2 12 -11 12 -19 0 -8 7 -14 15 -14 8 0 15 4 15 10 0
10 -33 31 -47 29 -4 0 -2 -3 5 -6z"/>
<path d="M4290 5261 c0 -14 18 -23 31 -15 8 4 7 9 -2 15 -18 11 -29 11 -29 0z"/>
<path d="M3945 5250 c-3 -5 -1 -10 4 -10 6 0 11 5 11 10 0 6 -2 10 -4 10 -3 0
-8 -4 -11 -10z"/>
<path d="M3601 5234 c0 -11 3 -14 6 -6 3 7 2 16 -1 19 -3 4 -6 -2 -5 -13z"/>
<path d="M4235 5230 c3 -5 11 -10 16 -10 6 0 7 5 4 10 -3 6 -11 10 -16 10 -6
0 -7 -4 -4 -10z"/>
<path d="M3325 5220 c-3 -5 -1 -10 4 -10 6 0 11 5 11 10 0 6 -2 10 -4 10 -3 0
-8 -4 -11 -10z"/>
<path d="M1364 5175 c-12 -8 -27 -29 -34 -47 -7 -18 -21 -54 -31 -80 -10 -26
-19 -57 -19 -70 0 -58 60 -80 104 -39 12 12 26 18 30 14 4 -5 7 -3 5 2 -1 6 7
30 18 55 29 66 38 144 18 164 -20 20 -64 21 -91 1z"/>
<path d="M3565 5180 c3 -5 8 -10 11 -10 2 0 4 5 4 10 0 6 -5 10 -11 10 -5 0
-7 -4 -4 -10z"/>
<path d="M4970 5180 c0 -21 16 -44 23 -33 4 6 0 19 -8 29 -11 15 -14 16 -15 4z"/>
<path d="M4090 5166 c0 -9 5 -16 10 -16 6 0 10 4 10 9 0 6 -4 13 -10 16 -5 3
-10 -1 -10 -9z"/>
<path d="M4274 5168 c-3 -4 4 -8 15 -8 12 0 21 4 21 8 0 5 -7 9 -15 9 -9 0
-18 -4 -21 -9z"/>
<path d="M3415 5160 c-8 -13 -1 -24 14 -19 6 3 7 10 2 18 -6 10 -10 10 -16 1z"/>
<path d="M3532 5155 c-10 -12 -10 -15 2 -15 7 0 16 7 20 15 7 19 -5 19 -22 0z"/>
<path d="M3630 5158 c0 -11 38 -10 44 1 3 5 -5 8 -19 7 -14 0 -25 -4 -25 -8z"/>
<path d="M4066 5155 c-3 -8 -1 -15 4 -15 6 0 10 7 10 15 0 8 -2 15 -4 15 -2 0
-6 -7 -10 -15z"/>
<path d="M4183 5163 c-17 -6 -17 -20 0 -20 8 0 14 6 14 14 0 7 -1 13 -1 12 -1
0 -7 -3 -13 -6z"/>
<path d="M3607 5143 c-11 -11 -8 -21 9 -27 13 -5 14 -4 6 7 -7 8 -9 17 -5 20
3 4 4 7 1 7 -2 0 -8 -3 -11 -7z"/>
<path d="M3650 5128 c0 -9 5 -20 10 -23 13 -8 13 5 0 25 -8 13 -10 13 -10 -2z"/>
<path d="M3700 5130 c-13 -8 -12 -10 3 -10 9 0 17 5 17 10 0 12 -1 12 -20 0z"/>
<path d="M4820 5136 c0 -2 7 -7 16 -10 8 -3 12 -2 9 4 -6 10 -25 14 -25 6z"/>
<path d="M3475 5121 c-6 -11 9 -23 19 -14 9 9 7 23 -3 23 -6 0 -12 -4 -16 -9z"/>
<path d="M4765 5121 c-3 -5 -1 -12 5 -16 5 -3 10 1 10 9 0 18 -6 21 -15 7z"/>
<path d="M3575 5111 c-3 -5 -2 -12 3 -15 5 -3 9 1 9 9 0 17 -3 19 -12 6z"/>
<path d="M3614 5085 c-10 -8 -14 -14 -9 -14 6 0 19 6 29 14 11 8 15 15 10 15
-6 0 -19 -7 -30 -15z"/>
<path d="M4960 5090 c0 -5 5 -10 11 -10 5 0 7 5 4 10 -3 6 -8 10 -11 10 -2 0
-4 -4 -4 -10z"/>
<path d="M3560 5076 c0 -2 7 -9 15 -16 13 -11 14 -10 9 4 -5 14 -24 23 -24 12z"/>
<path d="M4730 5069 c0 -5 5 -7 10 -4 6 3 10 8 10 11 0 2 -4 4 -10 4 -5 0 -10
-5 -10 -11z"/>
<path d="M4778 5048 c3 -13 7 -17 10 -10 2 7 8 10 13 6 5 -3 9 -3 9 0 0 3 -9
10 -19 15 -17 9 -18 8 -13 -11z"/>
<path d="M3555 5040 c-3 -5 -1 -10 4 -10 6 0 11 5 11 10 0 6 -2 10 -4 10 -3 0
-8 -4 -11 -10z"/>
<path d="M3605 5040 c-4 -6 -1 -9 7 -8 8 2 12 -4 10 -17 -2 -11 -2 -18 0 -15
2 3 10 14 18 24 10 13 10 17 3 12 -7 -4 -13 -2 -13 3 0 14 -17 14 -25 1z"/>
<path d="M4670 5040 c0 -5 5 -10 10 -10 6 0 10 5 10 10 0 6 -4 10 -10 10 -5 0
-10 -4 -10 -10z"/>
<path d="M4900 5030 c0 -5 5 -10 11 -10 5 0 7 5 4 10 -3 6 -8 10 -11 10 -2 0
-4 -4 -4 -10z"/>
<path d="M4975 5019 c-4 -6 -4 -13 -1 -16 3 -4 6 -1 6 6 0 7 5 9 10 6 6 -3 10
-1 10 4 0 14 -17 14 -25 0z"/>
<path d="M3498 5008 c-4 -8 -2 -20 4 -26 6 -6 6 -12 -1 -16 -6 -4 -11 -12 -11
-18 0 -6 8 -4 18 5 10 10 21 15 23 12 3 -2 5 5 6 15 1 11 -4 20 -12 20 -7 0
-15 5 -17 12 -3 8 -6 7 -10 -4z"/>
<path d="M3575 5000 c-3 -5 -1 -10 4 -10 6 0 11 5 11 10 0 6 -2 10 -4 10 -3 0
-8 -4 -11 -10z"/>
<path d="M4757 4990 c-3 -11 -2 -22 3 -25 4 -3 10 4 13 15 3 11 2 22 -3 25 -4
3 -10 -4 -13 -15z"/>
<path d="M3410 4989 c0 -5 5 -7 10 -4 6 3 10 8 10 11 0 2 -4 4 -10 4 -5 0 -10
-5 -10 -11z"/>
<path d="M3640 4993 c0 -5 9 -14 20 -21 12 -7 17 -18 14 -29 -5 -17 -5 -17 6
0 6 9 8 22 5 27 -9 14 -45 32 -45 23z"/>
<path d="M4866 4974 c-8 -22 -8 -24 7 -18 8 3 14 11 14 19 0 20 -13 19 -21 -1z"/>
<path d="M4960 4976 c0 -8 -5 -16 -12 -18 -8 -3 -6 -6 4 -10 18 -7 33 28 17
38 -5 3 -9 -1 -9 -10z"/>
<path d="M3700 4968 c0 -11 12 -10 30 2 12 7 10 9 -8 7 -12 0 -22 -5 -22 -9z"/>
<path d="M4801 4971 c-8 -5 -9 -11 -3 -15 5 -3 12 1 16 9 6 17 6 18 -13 6z"/>
<path d="M3598 4948 c9 -9 15 -9 24 0 9 9 7 12 -12 12 -19 0 -21 -3 -12 -12z"/>
<path d="M4829 4958 c-1 -2 -3 -15 -5 -30 -2 -22 1 -28 16 -28 10 0 22 5 26
12 5 8 2 9 -9 5 -16 -6 -21 3 -18 31 2 10 -6 18 -10 10z"/>
<path d="M1124 4915 c-17 -42 -18 -77 -2 -93 43 -43 110 48 78 108 -6 12 -21
20 -36 20 -19 0 -28 -8 -40 -35z"/>
<path d="M3540 4936 c0 -8 5 -18 10 -21 6 -3 10 -1 10 4 0 6 8 11 18 11 14 0
15 2 2 10 -22 14 -40 12 -40 -4z"/>
<path d="M4735 4940 c3 -5 8 -10 11 -10 2 0 4 5 4 10 0 6 -5 10 -11 10 -5 0
-7 -4 -4 -10z"/>
<path d="M4696 4931 c-16 -6 -17 -9 -6 -16 9 -5 15 -4 18 3 2 7 9 9 14 6 7 -4
8 -2 4 4 -4 7 -8 12 -9 11 -1 0 -11 -4 -21 -8z"/>
<path d="M4770 4922 c0 -12 9 -26 19 -31 16 -9 18 -8 14 9 -3 11 -11 25 -19
31 -11 9 -14 7 -14 -9z"/>
<path d="M4910 4914 c0 -9 5 -14 12 -12 18 6 21 28 4 28 -9 0 -16 -7 -16 -16z"/>
<path d="M5040 4919 c0 -5 5 -7 10 -4 6 3 10 8 10 11 0 2 -4 4 -10 4 -5 0 -10
-5 -10 -11z"/>
<path d="M3426 4911 c-4 -7 -5 -15 -2 -18 9 -9 19 4 14 18 -4 11 -6 11 -12 0z"/>
<path d="M3470 4889 c0 -5 5 -7 10 -4 6 3 10 8 10 11 0 2 -4 4 -10 4 -5 0 -10
-5 -10 -11z"/>
<path d="M5025 4890 c3 -5 8 -10 11 -10 2 0 4 5 4 10 0 6 -5 10 -11 10 -5 0
-7 -4 -4 -10z"/>
<path d="M3520 4879 c0 -5 5 -7 10 -4 6 3 10 8 10 11 0 2 -4 4 -10 4 -5 0 -10
-5 -10 -11z"/>
<path d="M4754 4882 c-17 -11 -22 -35 -12 -54 7 -14 5 -18 -9 -18 -16 0 -16
-1 -1 -16 15 -15 18 -15 32 -2 13 13 13 19 0 43 -11 21 -11 31 -3 41 13 15 10
18 -7 6z"/>
<path d="M3663 4855 c0 -8 4 -15 9 -15 4 0 8 4 8 9 0 6 -4 12 -8 15 -5 3 -9
-1 -9 -9z"/>
<path d="M4820 4861 c0 -5 7 -11 15 -15 8 -3 15 -1 15 3 0 5 -7 11 -15 15 -8
3 -15 1 -15 -3z"/>
<path d="M4881 4854 c0 -11 3 -14 6 -6 3 7 2 16 -1 19 -3 4 -6 -2 -5 -13z"/>
<path d="M4920 4860 c0 -5 5 -10 10 -10 6 0 10 5 10 10 0 6 -4 10 -10 10 -5 0
-10 -4 -10 -10z"/>
<path d="M4775 4850 c3 -5 8 -10 11 -10 2 0 4 5 4 10 0 6 -5 10 -11 10 -5 0
-7 -4 -4 -10z"/>
<path d="M4838 4811 c19 -17 27 -18 42 -9 24 15 23 16 -26 23 l-39 6 23 -20z"/>
<path d="M4925 4820 c3 -5 14 -10 23 -10 15 0 15 2 2 10 -20 13 -33 13 -25 0z"/>
<path d="M4912 4780 c2 -31 13 -32 21 -1 3 12 -1 22 -9 25 -11 4 -14 -2 -12
-24z"/>
<path d="M1214 4773 c3 -3 -2 -23 -11 -44 -12 -31 -13 -42 -3 -54 18 -21 47
-18 61 6 15 29 19 89 5 90 -45 5 -56 6 -52 2z"/>
<path d="M4930 4730 c0 -5 5 -10 10 -10 6 0 10 5 10 10 0 6 -4 10 -10 10 -5 0
-10 -4 -10 -10z"/>
<path d="M5000 4716 c0 -9 5 -16 10 -16 6 0 10 4 10 9 0 6 -4 13 -10 16 -5 3
-10 -1 -10 -9z"/>
<path d="M4945 4690 c-3 -5 3 -10 15 -10 12 0 18 5 15 10 -3 6 -10 10 -15 10
-5 0 -12 -4 -15 -10z"/>
<path d="M4902 4664 c-12 -8 -22 -22 -22 -30 0 -29 34 -10 42 24 7 26 8 26
-20 6z"/>
<path d="M5035 4590 c3 -5 8 -10 11 -10 2 0 4 5 4 10 0 6 -5 10 -11 10 -5 0
-7 -4 -4 -10z"/>
<path d="M4960 4394 c0 -9 5 -14 12 -12 18 6 21 28 4 28 -9 0 -16 -7 -16 -16z"/>
<path d="M4670 4390 c0 -5 5 -10 11 -10 5 0 7 5 4 10 -3 6 -8 10 -11 10 -2 0
-4 -4 -4 -10z"/>
<path d="M4845 4390 c-4 -6 -11 -8 -16 -5 -5 3 -6 -1 -3 -10 8 -20 26 -15 30
8 3 19 -2 22 -11 7z"/>
<path d="M4611 4376 c-13 -15 -12 -78 1 -70 4 3 5 -2 2 -10 -3 -9 -11 -16 -18
-16 -6 0 -3 -5 7 -11 24 -14 22 -32 -3 -24 -14 5 -20 2 -20 -9 0 -9 2 -16 4
-16 8 0 131 59 124 60 -4 0 -1 15 7 33 25 59 -25 79 -72 30 -24 -26 -26 -27
-20 -5 3 13 1 22 -6 22 -7 0 -6 4 3 10 8 5 12 12 9 15 -4 3 -11 -1 -18 -9z"/>
<path d="M4745 4310 c-3 -5 -1 -10 4 -10 6 0 11 5 11 10 0 6 -2 10 -4 10 -3 0
-8 -4 -11 -10z"/>
<path d="M5050 4300 c0 -5 5 -10 10 -10 6 0 10 5 10 10 0 6 -4 10 -10 10 -5 0
-10 -4 -10 -10z"/>
<path d="M1134 4283 c4 -8 2 -13 -4 -13 -6 0 -10 -12 -8 -27 2 -22 8 -28 28
-28 34 0 35 41 0 64 -14 9 -21 11 -16 4z"/>
<path d="M1075 4259 c-4 -6 -5 -12 -2 -15 2 -3 7 2 10 11 7 17 1 20 -8 4z"/>
<path d="M4618 4218 c-8 -7 -22 -18 -33 -24 -10 -6 -20 -16 -21 -22 -1 -7 0
-8 3 -2 2 5 9 10 14 10 6 0 7 -5 3 -12 -5 -7 -2 -9 9 -5 15 6 33 -17 28 -38
-1 -5 3 -5 9 2 7 6 9 17 4 25 -11 17 -11 39 -1 61 9 20 4 22 -15 5z"/>
<path d="M4644 4205 c-10 -8 -14 -15 -8 -15 6 0 17 7 24 15 16 19 9 19 -16 0z"/>
<path d="M4645 4171 c-3 -5 -2 -12 3 -15 5 -3 9 1 9 9 0 17 -3 19 -12 6z"/>
<path d="M4580 4119 c0 -5 5 -7 10 -4 6 3 10 8 10 11 0 2 -4 4 -10 4 -5 0 -10
-5 -10 -11z"/>
<path d="M4745 3111 c-6 -11 13 -26 22 -17 4 3 1 6 -6 6 -7 0 -9 5 -6 10 3 6
4 10 1 10 -3 0 -7 -4 -11 -9z"/>
<path d="M4685 2870 c-8 -13 -2 -99 7 -94 4 3 15 -13 24 -35 13 -34 22 -42 52
-47 31 -6 39 -3 59 20 34 40 29 61 -29 116 -52 48 -98 65 -113 40z"/>
<path d="M4864 2828 c-13 -43 29 -81 71 -64 18 7 19 45 2 66 -17 21 -66 20
-73 -2z"/>
<path d="M791 2674 c-16 -12 -21 -24 -19 -47 5 -56 68 -44 68 13 0 39 -21 53
-49 34z"/>
<path d="M4861 2661 c-14 -25 2 -72 30 -89 12 -8 18 -9 15 -4 -3 6 1 12 9 16
20 7 19 46 -1 74 -19 27 -40 28 -53 3z"/>
<path d="M890 2662 c-8 -4 -16 -11 -17 -17 -2 -5 -12 -35 -23 -65 -22 -62 -26
-140 -8 -158 18 -18 53 -15 72 7 39 42 62 201 34 229 -13 13 -34 14 -58 4z"/>
<path d="M796 2324 c-36 -36 -32 -98 6 -92 32 4 54 52 39 84 -12 28 -24 30
-45 8z"/>
<path d="M1210 1911 c0 -6 -7 -11 -15 -11 -16 0 -20 -15 -7 -24 5 -3 16 4 25
14 9 11 12 22 7 25 -6 4 -10 1 -10 -4z"/>
<path d="M1145 1870 c-3 -5 -1 -10 4 -10 6 0 11 5 11 10 0 6 -2 10 -4 10 -3 0
-8 -4 -11 -10z"/>
<path d="M1278 1863 c6 -2 18 -2 25 0 6 3 1 5 -13 5 -14 0 -19 -2 -12 -5z"/>
<path d="M1000 1837 c0 -14 4 -28 9 -32 6 -3 8 6 5 22 -7 37 -14 42 -14 10z"/>
<path d="M1245 1850 c-8 -13 -1 -24 14 -19 6 3 7 10 2 18 -6 10 -10 10 -16 1z"/>
<path d="M1050 1839 c0 -6 25 -19 36 -19 2 0 4 6 4 13 0 7 -9 13 -20 13 -11 0
-20 -3 -20 -7z"/>
<path d="M1310 1840 c0 -5 5 -10 10 -10 6 0 10 5 10 10 0 6 -4 10 -10 10 -5 0
-10 -4 -10 -10z"/>
<path d="M1400 1836 c0 -8 7 -16 15 -20 13 -4 14 -2 5 14 -13 23 -20 26 -20 6z"/>
<path d="M1197 1785 c-10 -9 -17 -18 -17 -20 0 -8 61 -1 67 8 3 6 1 7 -5 3 -6
-3 -15 1 -20 10 -8 14 -10 14 -25 -1z"/>
<path d="M1495 1780 c3 -5 10 -10 16 -10 5 0 9 5 9 10 0 6 -7 10 -16 10 -8 0
-12 -4 -9 -10z"/>
<path d="M974 1765 c13 -10 15 -15 6 -15 -9 0 -8 -6 6 -19 10 -10 23 -16 28
-13 4 2 2 8 -5 13 -7 4 -10 11 -6 15 7 8 -22 33 -38 33 -5 0 -1 -6 9 -14z"/>
<path d="M1123 1753 c-18 -7 -16 -23 2 -23 8 0 15 7 15 15 0 8 -1 15 -2 14 -2
0 -9 -3 -15 -6z"/>
<path d="M1470 1745 c0 -8 -6 -15 -12 -15 -9 0 -8 -4 2 -10 8 -5 11 -10 6 -10
-5 0 -3 -7 4 -15 7 -8 16 -12 21 -10 4 3 12 -2 17 -11 6 -11 11 -13 16 -5 4 6
3 11 -2 11 -6 0 -17 18 -26 40 -16 42 -26 51 -26 25z"/>
<path d="M1167 1710 c-9 -11 -13 -20 -9 -20 4 0 15 9 25 20 9 11 13 20 9 20
-4 0 -15 -9 -25 -20z"/>
<path d="M1393 1707 c-12 -25 -6 -40 16 -45 8 -2 11 3 8 12 -3 8 1 17 10 20
12 5 13 9 3 21 -17 21 -25 19 -37 -8z"/>
<path d="M1063 1701 c1 -11 6 -17 14 -14 10 4 11 9 2 19 -15 19 -18 18 -16 -5z"/>
<path d="M1435 1680 c-3 -5 -1 -10 4 -10 6 0 11 5 11 10 0 6 -2 10 -4 10 -3 0
-8 -4 -11 -10z"/>
<path d="M1546 1682 c-2 -4 -1 -14 5 -22 7 -12 9 -10 9 8 0 23 -5 28 -14 14z"/>
<path d="M1185 1670 c-5 -8 10 -50 19 -50 1 0 1 14 -2 30 -5 32 -7 36 -17 20z"/>
<path d="M1145 1660 c3 -5 10 -10 16 -10 5 0 9 5 9 10 0 6 -7 10 -16 10 -8 0
-12 -4 -9 -10z"/>
<path d="M1307 1656 c-4 -10 -1 -13 9 -9 15 6 19 23 5 23 -5 0 -11 -7 -14 -14z"/>
<path d="M1675 1660 c3 -5 8 -10 11 -10 2 0 4 5 4 10 0 6 -5 10 -11 10 -5 0
-7 -4 -4 -10z"/>
<path d="M1235 1639 c-10 -15 3 -25 16 -12 7 7 7 13 1 17 -6 3 -14 1 -17 -5z"/>
<path d="M1400 1635 c-11 -13 -10 -14 4 -9 9 3 16 10 16 15 0 13 -6 11 -20 -6z"/>
<path d="M1457 1643 c-3 -5 -1 -17 4 -28 7 -17 8 -17 8 8 1 27 -4 34 -12 20z"/>
<path d="M1510 1644 c0 -13 18 -39 24 -34 2 3 -2 14 -10 24 -8 11 -14 16 -14
10z"/>
<path d="M1323 1612 c-13 -2 -23 -10 -23 -17 0 -15 27 -13 56 3 20 11 1 20
-33 14z"/>
<path d="M1250 1583 c8 -3 19 -11 23 -17 6 -7 7 -6 4 4 -2 8 -12 16 -23 17
-13 2 -15 1 -4 -4z"/>
<path d="M1647 1566 c-12 -10 -15 -16 -7 -21 13 -8 23 0 26 20 3 18 4 18 -19
1z"/>
<path d="M1030 1560 c-9 -6 -10 -10 -3 -10 6 0 15 5 18 10 8 12 4 12 -15 0z"/>
<path d="M1397 1523 c-10 -9 -9 -23 1 -23 5 0 9 7 9 15 0 17 -1 18 -10 8z"/>
<path d="M1469 1513 c-1 -5 -2 -15 -3 -23 0 -9 -9 -14 -20 -12 -11 2 -15 -1
-11 -7 3 -6 10 -11 16 -11 15 0 50 40 44 50 -7 12 -25 13 -26 3z"/>
<path d="M1121 1484 c13 -16 29 -19 29 -5 0 5 -9 11 -21 14 -16 4 -18 3 -8 -9z"/>
<path d="M1218 1493 c13 -3 26 -11 29 -19 3 -8 12 -14 20 -14 11 0 7 6 -10 20
-14 11 -33 19 -44 19 -13 -1 -11 -3 5 -6z"/>
<path d="M1400 1470 c0 -5 5 -10 11 -10 5 0 7 5 4 10 -3 6 -8 10 -11 10 -2 0
-4 -4 -4 -10z"/>
<path d="M1525 1470 c-3 -5 -1 -10 4 -10 6 0 11 5 11 10 0 6 -2 10 -4 10 -3 0
-8 -4 -11 -10z"/>
<path d="M1105 1450 c-3 -5 -1 -10 4 -10 6 0 11 5 11 10 0 6 -2 10 -4 10 -3 0
-8 -4 -11 -10z"/>
<path d="M1216 1448 c3 -4 9 -8 15 -8 5 0 9 4 9 8 0 5 -7 9 -15 9 -8 0 -12 -4
-9 -9z"/>
<path d="M1496 1441 c-17 -6 -17 -8 -4 -14 10 -3 19 0 22 9 3 8 4 14 3 13 -1
0 -11 -4 -21 -8z"/>
<path d="M1530 1440 c0 -5 7 -10 15 -10 8 0 15 -6 15 -14 0 -8 7 -17 16 -20 8
-3 12 -11 9 -16 -4 -6 -3 -10 2 -9 4 1 17 1 28 0 17 -1 18 -3 5 -11 -8 -5 -13
-10 -10 -11 3 0 12 -2 21 -4 28 -5 10 33 -18 40 -17 4 -23 11 -19 21 3 8 2 13
-3 10 -4 -3 -16 3 -26 14 -20 22 -35 26 -35 10z"/>
<path d="M1200 1422 c0 -5 7 -9 15 -9 8 0 12 4 9 9 -3 4 -9 8 -15 8 -5 0 -9
-4 -9 -8z"/>
<path d="M1276 1414 c-3 -8 -2 -12 4 -9 6 3 10 1 10 -4 0 -6 5 -11 11 -11 8 0
9 4 0 13 -6 8 -8 17 -4 20 3 4 2 7 -4 7 -6 0 -14 -7 -17 -16z"/>
<path d="M1360 1421 c0 -5 5 -13 10 -16 6 -3 10 -2 10 4 0 5 -4 13 -10 16 -5
3 -10 2 -10 -4z"/>
<path d="M1420 1416 c0 -2 7 -7 16 -10 8 -3 12 -2 9 4 -6 10 -25 14 -25 6z"/>
<path d="M1358 1383 c7 -3 16 -2 19 1 4 3 -2 6 -13 5 -11 0 -14 -3 -6 -6z"/>
<path d="M1290 1366 c0 -9 5 -16 10 -16 6 0 10 4 10 9 0 6 -4 13 -10 16 -5 3
-10 -1 -10 -9z"/>
<path d="M1410 1376 c0 -14 29 -56 33 -48 10 14 -4 52 -19 52 -8 0 -14 -2 -14
-4z"/>
<path d="M1450 1371 c0 -6 4 -13 10 -16 6 -3 7 1 4 9 -7 18 -14 21 -14 7z"/>
<path d="M1471 1338 c-10 -16 -11 -23 -2 -26 6 -2 9 -8 5 -13 -3 -5 -1 -9 5
-9 15 0 23 18 11 25 -5 3 -10 11 -10 16 0 6 4 8 9 4 5 -3 13 0 17 6 4 8 9 7
16 -2 8 -12 9 -12 6 0 -7 23 -42 22 -57 -1z"/>
<path d="M1338 1325 c9 -14 20 -25 25 -25 11 0 9 18 -3 25 -6 4 -8 10 -6 14 3
4 -4 8 -15 8 -18 2 -18 1 -1 -22z"/>
<path d="M1394 1305 c-12 -9 -14 -14 -5 -15 7 0 11 -6 8 -14 -7 -18 28 -52 38
-37 3 6 0 11 -7 11 -10 0 -13 10 -10 35 5 40 3 41 -24 20z"/>
<path d="M890 1280 c0 -5 5 -10 11 -10 5 0 7 5 4 10 -3 6 -8 10 -11 10 -2 0
-4 -4 -4 -10z"/>
<path d="M1011 1274 c0 -11 3 -14 6 -6 3 7 2 16 -1 19 -3 4 -6 -2 -5 -13z"/>
<path d="M1118 1283 c7 -3 16 -2 19 1 4 3 -2 6 -13 5 -11 0 -14 -3 -6 -6z"/>
<path d="M1280 1270 c0 -5 5 -10 11 -10 5 0 7 5 4 10 -3 6 -8 10 -11 10 -2 0
-4 -4 -4 -10z"/>
<path d="M1540 1249 c0 -5 5 -7 10 -4 6 3 10 8 10 11 0 2 -4 4 -10 4 -5 0 -10
-5 -10 -11z"/>
<path d="M1270 1240 c0 -5 5 -10 10 -10 6 0 10 5 10 10 0 6 -4 10 -10 10 -5 0
-10 -4 -10 -10z"/>
<path d="M1495 1230 c-3 -5 -1 -10 4 -10 6 0 11 5 11 10 0 6 -2 10 -4 10 -3 0
-8 -4 -11 -10z"/>
<path d="M1150 1185 c7 -9 15 -13 17 -11 7 7 -7 26 -19 26 -6 0 -6 -6 2 -15z"/>
<path d="M1350 1179 c0 -5 5 -7 10 -4 6 3 10 8 10 11 0 2 -4 4 -10 4 -5 0 -10
-5 -10 -11z"/>
<path d="M1487 1144 c-8 -8 1 -24 12 -24 4 0 8 7 8 15 0 16 -9 20 -20 9z"/>
<path d="M1450 1114 c0 -8 5 -12 10 -9 6 3 10 10 10 16 0 5 -4 9 -10 9 -5 0
-10 -7 -10 -16z"/>
<path d="M1266 1010 c-51 -45 -66 -100 -35 -131 17 -17 23 -18 42 -7 12 7 29
11 37 10 9 -1 10 1 3 4 -9 4 -5 17 14 46 14 23 26 55 27 72 2 45 -40 48 -88 6z"/>
<path d="M1109 904 c-13 -37 -4 -74 20 -74 26 0 43 24 44 62 2 29 -1 33 -25
36 -23 3 -30 -2 -39 -24z"/>
<path d="M1194 782 c-16 -10 -26 -46 -18 -66 9 -23 40 -20 58 5 25 36 -6 84
-40 61z"/>
<path d="M4064 775 c-12 -8 -24 -12 -28 -10 -3 3 -4 2 -2 -1 3 -3 -9 -18 -25
-31 -24 -20 -29 -32 -27 -57 2 -25 8 -32 30 -34 15 -2 37 3 50 10 13 7 28 11
33 9 6 -1 7 1 3 5 -4 4 4 20 17 36 14 16 25 35 25 41 -1 35 -45 54 -76 32z"/>
<path d="M3816 604 c-19 -49 2 -70 47 -47 28 14 31 21 21 47 -8 21 -60 21 -68
0z"/>
<path d="M4012 518 c-17 -17 -15 -45 5 -52 10 -4 24 1 37 13 16 17 17 22 6 35
-15 19 -32 20 -48 4z"/>
<path d="M3758 438 c-26 -18 -49 -40 -52 -48 -2 -8 -9 -30 -15 -48 -6 -19 -6
-30 0 -27 5 4 9 2 9 -4 0 -18 38 -22 74 -7 49 20 116 94 116 127 0 50 -66 53
-132 7z"/>
</g>
</svg>
